<svg width="40" height="40" viewBox="0 0 40 40" fill="none" xmlns="http://www.w3.org/2000/svg">
<rect x="1" y="1" width="38" height="38" rx="7" stroke="#04C8B6" stroke-width="2"/>
<path fill-rule="evenodd" clip-rule="evenodd" d="M19.2929 27.7071C19.6834 28.0976 20.3166 28.0976 20.7071 27.7071L26.7071 21.7071C27.0976 21.3166 27.0976 20.6834 26.7071 20.2929C26.3166 19.9024 25.6834 19.9024 25.2929 20.2929L21 24.5858V13C21 12.4477 20.5523 12 20 12C19.4477 12 19 12.4477 19 13V24.5858L14.7071 20.2929C14.3166 19.9024 13.6834 19.9024 13.2929 20.2929C12.9024 20.6834 12.9024 21.3166 13.2929 21.7071L19.2929 27.7071Z" fill="#04C8B6"/>
</svg>
