<svg width="90" height="33" viewBox="0 0 90 33" fill="none" xmlns="http://www.w3.org/2000/svg">
<g clip-path="url(#clip0_7514_7176)">
<path d="M13.1931 9.02129C13.3059 9.13424 13.3435 9.24718 13.3435 9.39774V13.2373C13.3435 13.3879 13.2871 13.5196 13.1931 13.6137C13.0803 13.7266 12.9675 13.7643 12.8171 13.7643H9.37667C9.22628 13.7643 9.15104 13.8395 9.15104 13.9901V31.5504C9.15104 31.701 9.09467 31.8327 9.00065 31.9268C8.88791 32.0398 8.7751 32.0774 8.6247 32.0774H3.32301C3.17262 32.0774 3.04102 32.0209 2.94701 31.9268C2.83421 31.8139 2.79661 31.701 2.79661 31.5504V14.0089C2.79661 13.8583 2.72142 13.7831 2.57101 13.7831H0.559394C0.408993 13.7831 0.277392 13.7266 0.183391 13.6325C0.0705899 13.5196 0.0329895 13.4067 0.0329895 13.2561V9.41655C0.0329895 9.26599 0.08939 9.13424 0.183391 9.0401C0.296192 8.92716 0.408993 8.88954 0.559394 8.88954H2.55221C2.70261 8.88954 2.77782 8.8143 2.77782 8.66374V7.53443C2.77782 5.68994 3.07862 4.2407 3.68023 3.1867C4.28182 2.13272 5.22184 1.39868 6.50025 0.965795C7.77866 0.514082 9.4707 0.325869 11.5951 0.382333H12.4975C12.6479 0.382333 12.7795 0.438797 12.8735 0.532903C12.9863 0.645831 13.0239 0.758758 13.0239 0.909332V4.52301C13.0239 4.67358 12.9675 4.80534 12.8735 4.89944C12.7607 5.01237 12.6479 5.05002 12.4975 5.05002H11.6891C10.7867 5.08765 10.1287 5.31351 9.7527 5.7464C9.35788 6.17929 9.16991 6.8945 9.16991 7.89202V8.56961C9.16991 8.72017 9.24507 8.79549 9.39546 8.79549H12.8359C12.9863 8.79549 13.1179 8.85192 13.2119 8.94605L13.1931 9.02129ZM16.5771 31.9645C16.4644 31.8515 16.4267 31.7386 16.4267 31.588V0.984613C16.4267 0.834043 16.4832 0.702294 16.5771 0.608188C16.6899 0.495261 16.8027 0.457618 16.9531 0.457618H22.236C22.3864 0.457618 22.518 0.514082 22.612 0.608188C22.7248 0.721116 22.7624 0.834043 22.7624 0.984613V31.5692C22.7624 31.7198 22.706 31.8515 22.612 31.9457C22.4992 32.0586 22.3864 32.0962 22.236 32.0962H16.9531C16.8027 32.0962 16.6711 32.0398 16.5771 31.9457V31.9645Z" fill="#666666"/>
<path d="M38.9118 9.02129C39.0246 8.90835 39.1374 8.87073 39.2878 8.87073H44.5706C44.721 8.87073 44.8526 8.92716 44.9467 9.02129C45.0595 9.13423 45.0971 9.24717 45.0971 9.39774V31.5692C45.0971 31.7198 45.0407 31.8515 44.9467 31.9457C44.8339 32.0586 44.721 32.0962 44.5706 32.0962H39.2878C39.1374 32.0962 39.0058 32.0398 38.9118 31.9457C38.799 31.8327 38.7614 31.7198 38.7614 31.5692V30.4399C38.7614 30.4399 38.7238 30.2894 38.6674 30.2894C38.611 30.2894 38.5546 30.2894 38.4794 30.3646C37.4454 31.7574 35.8474 32.4538 33.6478 32.4538C31.5986 32.4538 29.9066 31.8327 28.5905 30.5905C27.2557 29.3483 26.5977 27.5227 26.5977 25.1135V9.39774C26.5977 9.24717 26.6541 9.11542 26.7481 9.02129C26.8609 8.90835 26.9737 8.87073 27.1241 8.87073H32.407C32.5574 8.87073 32.689 8.92716 32.7829 9.02129C32.8957 9.13423 32.9334 9.24717 32.9334 9.39774V23.6078C32.9334 24.6618 33.1777 25.4899 33.6854 26.0922C34.1742 26.6945 34.8886 26.9956 35.791 26.9956C36.6934 26.9956 37.4078 26.6757 37.9342 26.0358C38.4606 25.3958 38.7238 24.5489 38.7238 23.4948V9.39774C38.7238 9.24717 38.7802 9.11542 38.8742 9.02129H38.9118Z" fill="#666666"/>
<path d="M48.0299 31.9457C47.9359 31.8327 47.9547 31.6821 48.0675 31.494L54.3091 20.6341C54.3091 20.6341 54.3656 20.4458 54.3091 20.3706L48.0675 9.51068L47.9735 9.24718C47.9735 9.00248 48.1427 8.88954 48.4623 8.88954H54.1588C54.4595 8.88954 54.6852 9.00248 54.8356 9.24718L57.9564 14.95C58.0504 15.0629 58.1444 15.0629 58.2196 14.95L61.3404 9.24718C61.4909 9.00248 61.7164 8.88954 62.0172 8.88954H67.9017C68.1085 8.88954 68.2589 8.94605 68.3529 9.07781C68.4469 9.19067 68.4281 9.34123 68.3153 9.52949L62.0737 20.3894C62.0737 20.3894 62.0361 20.5776 62.0737 20.6529L68.3153 31.5128L68.4093 31.7763C68.4093 32.0209 68.2401 32.1338 67.9205 32.1338H62.2616C61.9608 32.1338 61.7352 32.0209 61.5848 31.7763L58.4264 25.9793C58.3324 25.8287 58.2384 25.8287 58.1632 25.9793L55.0424 31.7763C54.9296 32.0209 54.704 32.1338 54.3656 32.1338H48.4811C48.2743 32.1338 48.1239 32.0774 48.0299 31.9457Z" fill="#666666"/>
<path d="M72.8649 30.5152C71.1917 29.1977 70.1952 27.3909 69.8569 25.1135C69.6125 23.7207 69.4996 22.1774 69.4996 20.4458C69.4996 18.7143 69.6125 17.1333 69.8569 15.7781C70.1952 13.5384 71.1917 11.7692 72.8649 10.4518C74.5381 9.13423 76.6814 8.47547 79.3134 8.47547C81.9454 8.47547 84.0136 9.13423 85.6675 10.4518C87.3033 11.7692 88.3185 13.5384 88.6762 15.7781C88.9201 17.1333 89.033 18.6954 89.033 20.4458C89.033 22.1962 88.9201 23.6831 88.6762 25.0571C88.3375 27.3721 87.3601 29.1977 85.7243 30.5152C84.0885 31.8327 81.9454 32.4915 79.3322 32.4915C76.7189 32.4915 74.5569 31.8327 72.8837 30.5152H72.8649ZM81.3249 26.2428C81.8889 25.7346 82.2462 25.0383 82.4341 24.1536C82.5846 22.8926 82.6596 21.6504 82.6596 20.4458C82.6596 19.2412 82.5846 17.9802 82.4341 16.7756C82.2837 15.9099 81.9266 15.2135 81.3626 14.7242C80.7986 14.2348 80.1029 13.9713 79.2569 13.9713C78.4109 13.9713 77.7529 14.216 77.2077 14.7242C76.6437 15.2135 76.2865 15.9099 76.1361 16.7756C75.9857 17.6791 75.9105 18.9025 75.9105 20.4458C75.9105 21.9891 75.9669 23.1937 76.0985 24.1536C76.2865 25.0383 76.6625 25.7158 77.2266 26.2428C77.7906 26.751 78.4862 27.0145 79.3134 27.0145C80.1406 27.0145 80.7609 26.751 81.3249 26.2428Z" fill="#666666"/>
</g>
<defs>
<clipPath id="clip0_7514_7176">
<rect width="89" height="33" fill="white" transform="translate(0.0329895)"/>
</clipPath>
</defs>
</svg>
