<svg width="164" height="16" viewBox="0 0 164 16" fill="none" xmlns="http://www.w3.org/2000/svg">
<path d="M1.13857 0.254333H3.88035C4.05518 0.254333 4.19824 0.397382 4.19824 0.57222V11.7778C4.19824 11.9526 4.34129 12.0957 4.51612 12.0957H11.1997C11.3745 12.0957 11.5176 12.2387 11.5176 12.4135V14.5275C11.5176 14.7023 11.3745 14.8454 11.1997 14.8454H1.13857C0.963729 14.8454 0.820679 14.7023 0.820679 14.5275V0.57222C0.820679 0.397382 0.963729 0.254333 1.13857 0.254333Z" fill="#666666"/>
<path d="M17.8993 0.254333H20.6411C20.8159 0.254333 20.959 0.397382 20.959 0.57222V14.5275C20.959 14.7023 20.8159 14.8454 20.6411 14.8454H17.8993C17.7245 14.8454 17.5814 14.7023 17.5814 14.5275V0.57222C17.5814 0.397382 17.7245 0.254333 17.8993 0.254333Z" fill="#666666"/>
<path d="M38.769 7.31937H41.2168C41.3914 7.31937 41.5345 7.4624 41.5345 7.63726V13.0811C41.5345 13.1844 41.4868 13.2798 41.4075 13.3433C39.8101 14.4877 37.6642 15.0997 35.6379 15.0997C31.0523 15.0997 27.6747 11.9526 27.6747 7.54984C27.6747 3.14709 31.0523 0 35.7014 0C38.1411 0 40.1835 0.794719 41.5983 2.28879C41.7175 2.41595 41.7094 2.62258 41.5822 2.73384L39.8736 4.31532C39.7466 4.43453 39.5558 4.42658 39.4286 4.30739C38.4114 3.32987 37.2511 2.87689 35.8683 2.87689C33.031 2.87689 31.092 4.77626 31.092 7.54984C31.092 10.3234 33.031 12.2228 35.8286 12.2228C36.6867 12.2228 37.4815 12.0797 38.2761 11.6903C38.3875 11.6347 38.451 11.5234 38.451 11.4042V7.64521C38.451 7.47036 38.5941 7.3273 38.769 7.3273" fill="#666666"/>
<path d="M62.2203 0.57222V14.5275C62.2203 14.7023 62.0773 14.8454 61.9026 14.8454H59.1607C58.986 14.8454 58.843 14.7023 58.843 14.5275V9.17902C58.843 9.0042 58.6999 8.86114 58.525 8.86114H52.5327C52.3581 8.86114 52.215 9.0042 52.215 9.17902V14.5275C52.215 14.7023 52.0719 14.8454 51.897 14.8454H49.1551C48.9805 14.8454 48.8374 14.7023 48.8374 14.5275V0.57222C48.8374 0.397382 48.9805 0.254333 49.1551 0.254333H51.897C52.0719 0.254333 52.215 0.397382 52.215 0.57222V5.69022C52.215 5.86505 52.3581 6.0081 52.5327 6.0081H58.525C58.6999 6.0081 58.843 5.86505 58.843 5.69022V0.57222C58.843 0.397382 58.986 0.254333 59.1607 0.254333H61.9026C62.0773 0.254333 62.2203 0.397382 62.2203 0.57222Z" fill="#666666"/>
<path d="M72.5527 3.00395H68.5156C68.3406 3.00395 68.1976 2.86089 68.1976 2.68607V0.564157C68.1976 0.389319 68.3406 0.246269 68.5156 0.246269H80.5952C80.7701 0.246269 80.9131 0.389319 80.9131 0.564157V2.67811C80.9131 2.85294 80.7701 2.99599 80.5952 2.99599H76.558C76.3831 2.99599 76.24 3.13905 76.24 3.31388V14.5194C76.24 14.6943 76.097 14.8373 75.9223 14.8373H73.1804C73.0057 14.8373 72.8627 14.6943 72.8627 14.5194V3.32183C72.8627 3.147 72.7196 3.00395 72.5447 3.00395" fill="#666666"/>
<path d="M96.4011 12.5326C95.527 13.1763 94.4541 13.5021 93.1746 13.5021C92.2528 13.5021 91.4421 13.3352 90.7507 13.0094C90.0593 12.6836 89.487 12.2385 89.0263 11.6663C88.5652 11.0941 88.2237 10.4504 88.001 9.73516C87.7784 9.01991 87.6672 8.27289 87.6672 7.48611C87.6672 6.69933 87.7865 5.89667 88.0168 5.17346C88.2475 4.45028 88.5891 3.80656 89.034 3.25025C89.4793 2.69395 90.0435 2.25685 90.7111 1.94692C91.3864 1.62903 92.1654 1.47803 93.0474 1.47803C93.866 1.47803 94.6132 1.62108 95.2886 1.89923C95.9642 2.17738 96.5126 2.59858 96.9495 3.15488C97.339 3.64762 97.5932 4.25954 97.7205 4.96684C97.7443 5.11785 97.8713 5.23706 98.0304 5.23706H98.8727C99.0715 5.23706 99.2226 5.06221 99.1907 4.86354C99.0476 3.98139 98.7457 3.20257 98.2847 2.53501C97.7601 1.77208 97.0609 1.18398 96.1788 0.762782C95.3044 0.34158 94.2633 0.127007 93.0554 0.127007C91.8475 0.127007 90.838 0.333635 89.9639 0.746888C89.0898 1.16014 88.3825 1.71645 87.8261 2.40785C87.27 3.09927 86.8566 3.87013 86.5943 4.72048C86.3321 5.57083 86.2051 6.42913 86.2051 7.28744V7.65301C86.2051 8.44771 86.3321 9.26629 86.5863 10.1007C86.8408 10.9352 87.2461 11.714 87.8103 12.4372C88.3667 13.1525 89.0898 13.7326 89.98 14.1776C90.8699 14.6227 91.9428 14.8373 93.1984 14.8373C94.4541 14.8373 95.5031 14.6147 96.3933 14.1697C97.2833 13.7247 97.9905 13.1127 98.5151 12.3339C98.9681 11.6663 99.278 10.9193 99.4449 10.1087C99.4848 9.91794 99.3257 9.72723 99.1272 9.72723H98.2847C98.1336 9.72723 98.0144 9.83848 97.9828 9.98154C97.7521 11.0782 97.2278 11.9206 96.4172 12.5246" fill="#666666"/>
<path d="M121.635 2.42385C121.03 1.73245 120.284 1.17614 119.393 0.762892C118.503 0.349636 117.462 0.135063 116.27 0.135063C115.078 0.135063 114.053 0.341691 113.163 0.762892C112.265 1.17614 111.518 1.73245 110.914 2.42385C110.31 3.11526 109.865 3.88613 109.563 4.73648C109.261 5.58683 109.11 6.44513 109.11 7.30343V7.65312C109.11 8.45578 109.261 9.28228 109.555 10.1326C109.849 10.975 110.294 11.7618 110.882 12.4771C111.47 13.1923 112.217 13.7725 113.107 14.2016C114.005 14.6387 115.062 14.8533 116.278 14.8533C117.494 14.8533 118.551 14.6387 119.449 14.2016C120.347 13.7645 121.094 13.1923 121.69 12.4771C122.286 11.7618 122.731 10.983 123.017 10.1485C123.304 9.30613 123.447 8.48755 123.447 7.67696V7.31139C123.447 6.45309 123.296 5.60274 122.994 4.74443C122.691 3.89408 122.238 3.12322 121.643 2.4318M121.587 9.75118C121.333 10.4664 120.959 11.1101 120.474 11.6823C119.989 12.2545 119.393 12.6996 118.686 13.0254C117.979 13.3512 117.184 13.5181 116.286 13.5181C115.388 13.5181 114.609 13.3512 113.894 13.0254C113.187 12.6996 112.583 12.2545 112.098 11.6823C111.613 11.1101 111.239 10.4744 110.985 9.75118C110.731 9.03593 110.604 8.28888 110.604 7.5021C110.604 6.71533 110.731 5.91266 110.993 5.19741C111.256 4.48217 111.637 3.8464 112.13 3.28216C112.622 2.72585 113.218 2.28875 113.926 1.97086C114.633 1.65298 115.42 1.49403 116.286 1.49403C117.152 1.49403 117.963 1.65298 118.67 1.97086C119.378 2.28875 119.974 2.72585 120.466 3.28216C120.959 3.83844 121.333 4.47424 121.587 5.19741C121.841 5.91266 121.968 6.68355 121.968 7.5021C121.968 8.32068 121.841 9.02797 121.587 9.75118Z" fill="#666666"/>
<path d="M141.343 1.00146C140.604 0.627946 139.674 0.44516 138.546 0.44516H134.453V14.2018C134.453 14.3766 134.596 14.5196 134.771 14.5196H135.597C135.772 14.5196 135.915 14.3766 135.915 14.2018V9.7116C135.915 9.53675 136.058 9.39369 136.233 9.39369H138.546C139.674 9.39369 140.604 9.21091 141.343 8.83741C142.082 8.46388 142.63 7.95526 142.996 7.29565C143.361 6.63602 143.544 5.889 143.544 5.05453V4.78434C143.544 3.94192 143.361 3.18694 142.996 2.53527C142.63 1.8836 142.082 1.36703 141.343 1.00146ZM141.701 6.52476C141.47 7.00159 141.121 7.391 140.644 7.67711C140.167 7.96322 139.555 8.10625 138.8 8.10625H136.241C136.066 8.10625 135.923 7.96322 135.923 7.78836V2.05049C135.923 1.87565 136.066 1.73261 136.241 1.73261H138.8C139.555 1.73261 140.167 1.87565 140.644 2.15381C141.121 2.43196 141.47 2.81342 141.701 3.2982C141.931 3.77505 142.042 4.31544 142.042 4.91944C142.042 5.52343 141.923 6.03998 141.701 6.52476Z" fill="#666666"/>
<path d="M163.992 0.500704H162.752C162.633 0.500704 162.522 0.572229 162.466 0.675542L159.001 7.69292C158.945 7.80417 158.834 7.86775 158.715 7.86775H157.968C157.849 7.86775 157.737 7.80417 157.69 7.69292L154.026 0.659648C153.97 0.556335 153.859 0.48481 153.748 0.48481H152.405L156.919 9.01216H157.61V14.1858C157.61 14.3606 157.753 14.5037 157.928 14.5037H158.731C158.906 14.5037 159.049 14.3606 159.049 14.1858V9.01216H159.756L164 0.48481L163.992 0.500704Z" fill="#666666"/>
</svg>
