<svg width="154" height="51" viewBox="0 0 154 51" fill="none" xmlns="http://www.w3.org/2000/svg">
<g id="logo-vtsd completa" clip-path="url(#clip0_7514_7029)">
<path id="Vector" d="M52.0016 1.7709H52.8922C52.9245 1.7709 52.9489 1.78693 52.9614 1.81498L54.9291 6.15812C54.9577 6.21823 55.043 6.21823 55.0716 6.15812L57.0476 1.81498C57.0601 1.78693 57.0882 1.7709 57.1168 1.7709H58.007C58.0518 1.7709 58.0845 1.80697 58.0845 1.84703V7.40818C58.0845 7.45228 58.0481 7.48432 58.007 7.48432H57.2386C57.1938 7.48432 57.1616 7.44826 57.1616 7.40818V3.54182H57.121L55.3604 7.44022C55.3479 7.4683 55.3198 7.48432 55.2912 7.48432H54.7054C54.6731 7.48432 54.6487 7.4683 54.6325 7.44022L52.8797 3.54182H52.8392V7.40818C52.8392 7.45228 52.8028 7.48432 52.7622 7.48432H51.9935C51.9488 7.48432 51.9162 7.44826 51.9162 7.40818V1.84703C51.9162 1.80296 51.9528 1.7709 51.9935 1.7709H52.0016Z" fill="black"/>
<path id="Vector_2" d="M62.3253 1.77092H65.3709C65.4157 1.77092 65.4484 1.80698 65.4484 1.84704V2.54018C65.4484 2.58426 65.4115 2.61631 65.3709 2.61631H63.2487C63.204 2.61631 63.1712 2.65237 63.1712 2.69243V4.12279C63.1712 4.16687 63.2076 4.19892 63.2487 4.19892H65.0213C65.066 4.19892 65.0988 4.23497 65.0988 4.27504V4.94414C65.0988 4.98822 65.0619 5.02027 65.0213 5.02027H63.2487C63.204 5.02027 63.1712 5.05633 63.1712 5.09639V6.55881C63.1712 6.60285 63.2076 6.63495 63.2487 6.63495H65.4443C65.489 6.63495 65.5213 6.67101 65.5213 6.71103V7.40417C65.5213 7.44827 65.4849 7.48031 65.4443 7.48031H62.3253C62.2805 7.48031 62.2483 7.44425 62.2483 7.40417V1.84704C62.2483 1.80297 62.2847 1.77092 62.3253 1.77092ZM64.4074 0H64.9724C65.0333 0 65.0702 0.0681123 65.0374 0.116191L64.3262 1.218C64.3096 1.24205 64.2851 1.25406 64.2612 1.25406H63.7159C63.6551 1.25406 63.6187 1.18996 63.6509 1.13787L64.3382 0.0360594C64.3502 0.0120198 64.3788 0 64.4032 0H64.4074Z" fill="black"/>
<path id="Vector_3" d="M70.7344 2.6163H69.429C69.3843 2.6163 69.3515 2.58024 69.3515 2.54018V1.84703C69.3515 1.80296 69.3884 1.7709 69.429 1.7709H73.1209C73.1656 1.7709 73.1984 1.80697 73.1984 1.84703V2.54018C73.1984 2.58425 73.1614 2.6163 73.1209 2.6163H71.816C71.7713 2.6163 71.7385 2.65236 71.7385 2.69242V7.40818C71.7385 7.45228 71.7021 7.48432 71.6615 7.48432H70.8925C70.8478 7.48432 70.8155 7.44826 70.8155 7.40818V2.69242C70.8155 2.64835 70.7791 2.6163 70.738 2.6163H70.7344Z" fill="black"/>
<path id="Vector_4" d="M76.6587 4.6276C76.6587 2.87271 78.0208 1.69077 79.6227 1.69077C81.2246 1.69077 82.5867 2.87271 82.5867 4.6276C82.5867 6.38251 81.2168 7.56442 79.6227 7.56442C78.0286 7.56442 76.6587 6.38251 76.6587 4.6276ZM79.6227 6.695C80.7002 6.695 81.6393 5.88168 81.6393 4.6276C81.6393 3.37354 80.7002 2.5602 79.6227 2.5602C78.5452 2.5602 77.6061 3.37354 77.6061 4.6276C77.6061 5.88168 78.5452 6.695 79.6227 6.695Z" fill="black"/>
<path id="Vector_5" d="M86.6734 1.84703C86.6734 1.80296 86.7098 1.7709 86.7504 1.7709H88.6005C90.2513 1.7709 91.4266 2.93683 91.4266 4.62761C91.4266 6.31838 90.2513 7.48432 88.6005 7.48432H86.7504C86.7056 7.48432 86.6734 7.44826 86.6734 7.40818V1.84703ZM88.5682 6.62288C89.8002 6.62288 90.4708 5.81755 90.4708 4.62761C90.4708 3.43765 89.8002 2.63233 88.5682 2.63233H87.6733C87.6291 2.63233 87.5963 2.66839 87.5963 2.70845V6.5468C87.5963 6.59084 87.6328 6.62288 87.6733 6.62288H88.5682Z" fill="black"/>
<path id="Vector_6" d="M95.338 4.6276C95.338 2.87271 96.7006 1.69077 98.3025 1.69077C99.9044 1.69077 101.266 2.87271 101.266 4.6276C101.266 6.38251 99.8966 7.56442 98.3025 7.56442C96.7084 7.56442 95.338 6.38251 95.338 4.6276ZM98.3025 6.695C99.38 6.695 100.319 5.88168 100.319 4.6276C100.319 3.37354 99.38 2.5602 98.3025 2.5602C97.225 2.5602 96.2854 3.37354 96.2854 4.6276C96.2854 5.88168 97.225 6.695 98.3025 6.695Z" fill="black"/>
<path id="Vector_7" d="M16.5614 15.3092H12.4262C12.2269 15.3092 12.0521 15.4294 11.9789 15.6137L8.9781 23.675C8.82363 24.0797 8.24217 24.0797 8.08765 23.675L5.06245 15.6137C4.99332 15.4334 4.81442 15.3092 4.61925 15.3092H0.475879C0.138392 15.3092 -0.0933765 15.6498 0.0367391 15.9583L6.02613 30.6825C6.09928 30.8588 6.27415 30.971 6.46524 30.971H10.568C10.7631 30.971 10.9339 30.8588 11.0071 30.6825L16.9965 15.9583C17.1266 15.6498 16.8989 15.3092 16.5573 15.3092H16.5614Z" fill="black"/>
<path id="Vector_8" d="M25.0799 15.3092C21.1033 15.3092 17.2201 18.0658 17.2201 23.1702C17.2201 26.1751 18.627 28.4028 20.6885 29.6929C21.7172 29.2602 22.9005 29.0198 24.1894 29.0198C26.1452 29.0198 27.6701 29.5767 28.8289 30.318C29.8454 29.9013 30.6871 29.3043 31.3295 28.6111C31.4962 28.4309 31.4962 28.1504 31.3295 27.9701L29.6543 26.2112C29.5039 26.0549 29.2599 26.0149 29.0729 26.123C28.0563 26.724 27.0316 26.9124 25.9135 26.9124C24.5839 26.9124 23.5063 26.5678 22.7907 25.8786C22.4939 25.5902 22.7216 25.0853 23.1363 25.0853H32.1793C32.4192 25.0853 32.6226 24.913 32.651 24.6766C33.4764 17.8494 28.9021 15.3092 25.0921 15.3092H25.0799ZM27.4098 21.5475H22.7988C22.4166 21.5475 22.1889 21.1148 22.4044 20.8063C23.0509 19.9048 24.0918 19.4881 25.1369 19.4881C26.1818 19.4881 27.2715 19.9128 27.8245 20.8463C28.0075 21.1589 27.7717 21.5515 27.4098 21.5515V21.5475Z" fill="black"/>
<path id="Vector_9" d="M44.0361 15.3092C42.5032 15.3092 41.3037 15.79 40.4295 16.5472C40.1408 16.8037 39.6813 16.6074 39.6813 16.2267V15.6217C39.6813 15.4495 39.539 15.3092 39.3642 15.3092H34.9036C34.7288 15.3092 34.5865 15.4495 34.5865 15.6217V30.5063C34.5865 30.7627 34.7979 30.975 35.0622 30.975H39.2015C39.4658 30.975 39.6813 30.7667 39.6813 30.5063V22.6773C39.6813 21.1108 40.4173 19.7486 42.125 19.7486C43.8328 19.7486 44.6257 21.1108 44.6257 22.6773V30.5063C44.6257 30.7627 44.8372 30.975 45.1055 30.975H49.2448C49.505 30.975 49.7206 30.7667 49.7206 30.5063V21.8079C49.7206 17.1963 47.1305 15.3092 44.0402 15.3092H44.0361Z" fill="black"/>
<path id="Vector_10" d="M67.7621 11.7433H63.6228C63.3622 11.7433 63.1468 11.9517 63.1468 12.2161V17.0241H63.0573C62.9397 16.7636 61.4959 15.3132 58.8166 15.3132C55.401 15.3132 51.5747 17.8654 51.5747 23.1461C51.5747 28.4268 55.4051 30.975 58.8166 30.975C61.4918 30.975 62.9355 29.5246 63.0573 29.2642H63.1468V30.5062C63.1468 30.7627 63.3585 30.975 63.6228 30.975H67.7621C68.0264 30.975 68.2418 30.7666 68.2418 30.5062V12.2121C68.2418 11.9517 68.03 11.7393 67.7621 11.7393V11.7433ZM59.9102 26.5357C58.1412 26.5357 56.5799 25.2616 56.5799 23.1421C56.5799 21.0226 58.1412 19.7485 59.9102 19.7485C61.6791 19.7485 63.2649 20.9946 63.2649 23.1421C63.2649 25.2897 61.7358 26.5357 59.9102 26.5357Z" fill="black"/>
<path id="Vector_11" d="M86.279 15.3092H82.1397C81.8755 15.3092 81.6601 15.5176 81.6601 15.782V17.02H81.5706C81.4525 16.7596 80.0129 15.3092 77.3293 15.3092C73.9138 15.3092 70.0877 17.8614 70.0877 23.1421C70.0877 28.4228 73.9138 30.971 77.3293 30.971C80.0092 30.971 81.4525 29.5206 81.5706 29.2602H81.6601V30.5022C81.6601 30.7587 81.8713 30.971 82.1397 30.971H86.279C86.5433 30.971 86.7587 30.7627 86.7587 30.5022V15.778C86.7587 15.5176 86.5475 15.3052 86.279 15.3052V15.3092ZM78.4235 26.5357C76.6545 26.5357 75.0974 25.2616 75.0974 23.1421C75.0974 21.0226 76.6545 19.7485 78.4235 19.7485C80.1919 19.7485 81.7818 20.9946 81.7818 23.1421C81.7818 25.2897 80.2527 26.5357 78.4235 26.5357Z" fill="black"/>
<path id="Vector_12" d="M100.01 26.4596C99.6932 26.5157 99.4002 26.5397 99.1848 26.5397C97.7411 26.5397 97.3306 25.6663 97.3306 24.9651V20.4016C97.3306 20.1131 97.5663 19.8768 97.8592 19.8768H100.039C100.332 19.8768 100.567 19.6404 100.567 19.3519V15.8381C100.567 15.5456 100.332 15.3092 100.039 15.3092H97.8592C97.5663 15.3092 97.3306 15.1049 97.3306 14.8164V12.2682C97.3306 11.9757 97.0949 11.7393 96.802 11.7393H92.7683C92.4754 11.7393 92.2398 11.9757 92.2398 12.2682V14.8164C92.2398 15.1049 92.0041 15.3092 91.7112 15.3092H90.5281C90.2352 15.3092 89.9953 15.5456 89.9953 15.8381V19.3519C89.9953 19.6404 90.2352 19.8768 90.5281 19.8768H91.7112C92.0041 19.8768 92.2398 20.1131 92.2398 20.4016V25.7264C92.2398 29.5206 94.4478 30.979 97.5096 30.979C98.5423 30.979 99.7623 30.8148 100.429 30.3139C100.555 30.2178 100.632 30.0615 100.632 29.8972V26.9804C100.632 26.6559 100.336 26.4035 100.014 26.4636L100.01 26.4596Z" fill="black"/>
<path id="Vector_13" d="M109.871 15.3092C105.841 15.3092 101.689 18.0057 101.689 23.1421C101.689 28.2786 105.841 30.971 109.871 30.971C113.9 30.971 118.023 28.2746 118.023 23.1421C118.023 18.0097 113.872 15.3092 109.871 15.3092ZM109.871 26.4796C108.102 26.4796 106.691 25.1454 106.691 23.1421C106.691 21.1388 108.102 19.8047 109.871 19.8047C111.639 19.8047 113.022 21.1388 113.022 23.1421C113.022 25.1454 111.611 26.4796 109.871 26.4796Z" fill="black"/>
<path id="Vector_14" d="M135.28 11.7433H131.246C130.953 11.7433 130.717 11.9798 130.717 12.2682V17.0241H130.628C130.51 16.7636 129.071 15.3132 126.387 15.3132C122.972 15.3132 119.146 17.8654 119.146 23.1461C119.146 28.4268 122.972 30.975 126.387 30.975C129.067 30.975 130.51 29.5246 130.628 29.2642H130.717V30.4542C130.717 30.7426 130.953 30.975 131.246 30.975H135.28C135.573 30.975 135.808 30.7426 135.808 30.4542V12.2682C135.808 11.9798 135.573 11.7433 135.28 11.7433ZM127.477 26.5357C125.708 26.5357 124.151 25.2616 124.151 23.1421C124.151 21.0226 125.708 19.7485 127.477 19.7485C129.246 19.7485 130.835 20.9946 130.835 23.1421C130.835 25.2897 129.306 26.5357 127.477 26.5357Z" fill="black"/>
<path id="Vector_15" d="M145.847 15.3092C141.814 15.3092 137.662 18.0057 137.662 23.1421C137.662 28.2786 141.814 30.971 145.847 30.971C149.881 30.971 154 28.2746 154 23.1421C154 18.0097 149.848 15.3092 145.847 15.3092ZM145.847 26.4796C144.078 26.4796 142.668 25.1454 142.668 23.1421C142.668 21.1388 144.083 19.8047 145.847 19.8047C147.612 19.8047 148.999 21.1388 148.999 23.1421C148.999 25.1454 147.584 26.4796 145.847 26.4796Z" fill="black"/>
<path id="Vector_16" d="M109.781 31.7523H105.646C105.381 31.7523 105.166 31.9646 105.166 32.2251V37.037H105.076C104.959 36.7766 103.519 35.3262 100.836 35.3262C99.01 35.3262 97.0705 36.0554 95.6553 37.5418C96.9851 39.0483 97.6802 40.9635 97.6802 43.1591C97.6802 45.3547 96.9851 47.2698 95.6553 48.7763C97.0663 50.2628 99.01 50.992 100.836 50.992C103.515 50.992 104.959 49.5416 105.076 49.2811H105.166V50.2307C105.166 50.4911 105.381 50.7035 105.646 50.7035H109.781C110.045 50.7035 110.261 50.4911 110.261 50.2307V32.2291C110.261 31.9687 110.05 31.7563 109.781 31.7563V31.7523ZM101.929 46.5527C100.161 46.5527 98.6032 45.2786 98.6032 43.1591C98.6032 41.0396 100.161 39.7655 101.929 39.7655C103.698 39.7655 105.288 41.0115 105.288 43.1591C105.288 45.3066 103.759 46.5527 101.929 46.5527Z" fill="black"/>
<path id="Vector_17" d="M117.466 35.3262H113.331C113.067 35.3262 112.851 35.5345 112.851 35.799V50.2267C112.851 50.4872 113.067 50.6995 113.331 50.6995H117.466C117.73 50.6995 117.946 50.4872 117.946 50.2267V35.799C117.946 35.5386 117.735 35.3262 117.466 35.3262ZM117.466 31.7523H113.331C113.067 31.7523 112.851 31.9646 112.851 32.2251V33.9559C112.851 34.2164 113.067 34.4287 113.331 34.4287H117.466C117.73 34.4287 117.946 34.2204 117.946 33.9559V32.2251C117.946 31.9646 117.735 31.7523 117.466 31.7523Z" fill="black"/>
<path id="Vector_18" d="M135.983 35.3262H131.848C131.584 35.3262 131.368 35.5345 131.368 35.799V37.037H131.279C131.161 36.7766 129.717 35.3262 127.038 35.3262C123.622 35.3262 119.796 37.8784 119.796 43.1591C119.796 48.4398 123.622 50.988 127.038 50.988C129.713 50.988 131.156 49.5376 131.279 49.2772H131.368V50.2267C131.368 50.4872 131.579 50.6995 131.848 50.6995H135.983C136.247 50.6995 136.463 50.4872 136.463 50.2267V35.799C136.463 35.5385 136.247 35.3262 135.983 35.3262ZM128.132 46.5527C126.363 46.5527 124.801 45.2786 124.801 43.1591C124.801 41.0396 126.363 39.7655 128.132 39.7655C129.9 39.7655 131.486 41.0116 131.486 43.1591C131.486 45.3066 129.957 46.5527 128.132 46.5527Z" fill="black"/>
<path id="Vector_19" d="M17.0209 45.6151L20.3632 44.0846C20.6072 43.9724 20.8918 44.0686 21.0219 44.301C21.6197 45.3667 22.5426 46.4085 24.1569 46.4085C25.3645 46.4085 26.4542 45.8275 26.4542 44.4372C26.4542 43.4516 25.9826 42.9588 24.1284 42.2336L22.8313 41.7408C20.1233 40.667 17.3868 39.1886 17.3868 35.6788C17.3868 32.169 20.5055 29.8211 24.1854 29.8211C27.6456 29.8211 29.8739 31.7643 30.9961 33.7917C31.1303 34.0321 31.0408 34.3325 30.8009 34.4688L27.8123 36.1436C27.5806 36.2717 27.2919 36.2036 27.1414 35.9873C26.2957 34.7733 25.3808 34.3165 24.3927 34.3165C23.303 34.3165 22.4776 34.7813 22.4776 35.7669C22.4776 36.5201 22.9208 37.1291 25.0393 37.9425L26.4542 38.4954C30.3089 40.0339 31.8418 41.7448 31.8418 44.5013C31.8418 48.9406 27.8083 51 24.2464 51C20.6844 51 17.7243 49.0328 16.7525 46.2442C16.6671 45.9997 16.781 45.7353 17.0209 45.6271V45.6151Z" fill="#00A99D"/>
<path id="Vector_20" d="M32.96 43.1551C32.96 37.8744 36.7862 35.3222 40.2018 35.3222C42.8814 35.3222 44.3248 36.7726 44.4427 37.033H44.5322V35.819C44.5322 35.5425 44.7599 35.3182 45.0404 35.3182H49.1188C49.3993 35.3182 49.627 35.5425 49.627 35.819V50.1947C49.627 50.4712 49.3993 50.6955 49.1188 50.6955H45.0404C44.7599 50.6955 44.5322 50.4712 44.5322 50.1947V49.2732H44.4427C44.3248 49.5336 42.8814 50.984 40.2018 50.984C36.7862 50.984 32.96 48.4318 32.96 43.1511V43.1551ZM41.2915 46.5487C43.1172 46.5487 44.6461 45.3026 44.6461 43.1551C44.6461 41.0076 43.1172 39.7615 41.2915 39.7615C39.4658 39.7615 37.9654 41.0396 37.9654 43.1551C37.9654 45.2706 39.5268 46.5487 41.2915 46.5487Z" fill="#00A99D"/>
<path id="Vector_21" d="M52.7211 35.3262H56.7995C57.0804 35.3262 57.3078 35.5506 57.3078 35.827V36.2557C57.3078 36.6363 57.7635 36.8286 58.0518 36.5762C58.9263 35.815 60.1297 35.3302 61.6666 35.3302C64.757 35.3302 67.3469 37.2173 67.3469 41.8289V50.2067C67.3469 50.4831 67.1195 50.7075 66.8386 50.7075H62.7607C62.4798 50.7075 62.2524 50.4831 62.2524 50.2067V42.6983C62.2524 41.1318 61.4876 39.7695 59.7515 39.7695C58.0153 39.7695 57.3078 41.1318 57.3078 42.6983V50.2067C57.3078 50.4831 57.0804 50.7075 56.7995 50.7075H52.7211C52.4406 50.7075 52.2133 50.4831 52.2133 50.2067V35.831C52.2133 35.5546 52.4406 35.3302 52.7211 35.3302V35.3262Z" fill="#00A99D"/>
<path id="Vector_22" d="M71.084 45.6512V40.058C71.084 39.7815 70.8561 39.5571 70.5757 39.5571H69.262C68.9816 39.5571 68.7542 39.3328 68.7542 39.0563V35.831C68.7542 35.5546 68.9816 35.3302 69.262 35.3302H70.5757C70.8561 35.3302 71.084 35.1058 71.084 34.8293V32.2491C71.084 31.9727 71.3114 31.7483 71.5923 31.7483H75.6707C75.9511 31.7483 76.1785 31.9727 76.1785 32.2491V34.8293C76.1785 35.1058 76.4064 35.3302 76.6868 35.3302H78.911C79.1919 35.3302 79.4193 35.5546 79.4193 35.831V39.0563C79.4193 39.3328 79.1919 39.5571 78.911 39.5571H76.6868C76.4064 39.5571 76.1785 39.7815 76.1785 40.058V44.8979C76.1785 45.5951 76.5895 46.4645 78.0327 46.4645C78.2523 46.4645 78.5535 46.4405 78.8787 46.3804C79.2039 46.3203 79.4765 46.5647 79.4765 46.8772V49.81C79.4765 49.9623 79.4073 50.1105 79.2814 50.2067C78.6186 50.7075 77.3902 50.8758 76.3533 50.8758C73.292 50.8758 71.084 49.4254 71.084 45.6552V45.6512Z" fill="#00A99D"/>
<path id="Vector_23" d="M80.5378 43.1551C80.5378 38.0186 84.6891 35.3222 88.7227 35.3222C92.7564 35.3222 96.8754 38.0186 96.8754 43.1551C96.8754 48.2915 92.7236 50.988 88.7227 50.988C84.7219 50.988 80.5378 48.2915 80.5378 43.1551ZM88.7227 46.4926C90.4589 46.4926 91.874 45.1584 91.874 43.1551C91.874 41.1518 90.4589 39.8175 88.7227 39.8175C86.9866 39.8175 85.5428 41.1518 85.5428 43.1551C85.5428 45.1584 86.958 46.4926 88.7227 46.4926Z" fill="#00A99D"/>
</g>
<defs>
<clipPath id="clip0_7514_7029">
<rect width="154" height="51" fill="white"/>
</clipPath>
</defs>
</svg>
