<svg width="168" height="16" viewBox="0 0 168 16" fill="none" xmlns="http://www.w3.org/2000/svg">
<g id="Group 1">
<g id="Group">
<path id="Vector" d="M47.6137 15.0751L42.8213 0.614481C42.7595 0.432678 42.5922 0.309052 42.3995 0.309052H36.2437C36.0546 0.309052 35.8837 0.429042 35.8219 0.614481L30.9896 15.0751C30.8914 15.3624 31.1059 15.6605 31.4114 15.6605H34.062C39.2253 15.6605 39.2507 10.8791 39.2507 10.8791H39.3671C39.3671 10.8791 39.3925 15.6605 44.5557 15.6605H47.1955C47.4973 15.6605 47.7118 15.3624 47.6173 15.0751H47.6137ZM40.9669 8.30112L39.6289 9.63919C39.4507 9.81736 39.1634 9.81736 38.9889 9.63919L37.6508 8.30112C37.4727 8.12295 37.4727 7.83934 37.6508 7.66117L38.9889 6.3231C39.1671 6.14493 39.4543 6.14493 39.6289 6.3231L40.9669 7.66117C41.1451 7.83934 41.1451 8.12295 40.9669 8.30112Z" fill="#C8C8C8"/>
<path id="Vector_2" d="M0.864929 0.752652C0.864929 0.509035 1.06491 0.309052 1.30853 0.309052H9.28605C13.7802 0.309052 15.6455 1.95255 15.6455 4.73778C15.6455 7.523 13.5402 8.81744 11.0205 9.01379V9.05742C13.5184 9.27558 14.7474 10.0646 15.2746 11.6681L16.4345 15.0715C16.5327 15.3587 16.3182 15.6569 16.0164 15.6569H11.0932C10.8968 15.6569 10.7223 15.526 10.6678 15.3369L9.86055 12.5662C9.46422 11.2063 8.74064 10.5482 7.29349 10.5482H6.79535C6.55173 10.5482 6.35175 10.7482 6.35175 10.9918V15.2133C6.35175 15.4569 6.15176 15.6569 5.90815 15.6569H1.30853C1.06491 15.6569 0.864929 15.4569 0.864929 15.2133V0.752652ZM10.206 6.0104C10.206 4.89049 9.54785 4.41053 8.12251 4.41053H6.78808C6.54446 4.41053 6.34448 4.61051 6.34448 4.85413V7.19212C6.34448 7.43574 6.54446 7.63572 6.78808 7.63572H8.07888C9.50421 7.63572 10.206 7.13031 10.206 6.01403V6.0104Z" fill="#C8C8C8"/>
<path id="Vector_3" d="M18.169 0.309052H29.5172C29.7608 0.309052 29.9608 0.509035 29.9608 0.752652V3.81422C29.9608 4.05783 29.7608 4.25782 29.5172 4.25782H23.6485C23.4049 4.25782 23.2049 4.4578 23.2049 4.70142V5.9195C23.2049 6.16311 23.4049 6.3631 23.6485 6.3631H28.9463C29.1899 6.3631 29.3899 6.56308 29.3899 6.8067V9.1665C29.3899 9.41012 29.1899 9.6101 28.9463 9.6101H23.6485C23.4049 9.6101 23.2049 9.81008 23.2049 10.0537V11.2718C23.2049 11.5154 23.4049 11.7154 23.6485 11.7154H29.5172C29.7608 11.7154 29.9608 11.9154 29.9608 12.159V15.2205C29.9608 15.4642 29.7608 15.6641 29.5172 15.6641H18.169C17.9254 15.6641 17.7254 15.4642 17.7254 15.2205V0.752652C17.7254 0.509035 17.9254 0.309052 18.169 0.309052Z" fill="#C8C8C8"/>
<path id="Vector_4" d="M48.7045 0.752652C48.7045 0.509035 48.9044 0.309052 49.1481 0.309052H56.0057C61.8597 0.309052 65.0158 3.02883 65.0158 7.98478C65.0158 12.9407 61.8597 15.6605 56.0057 15.6605H49.1481C48.9044 15.6605 48.7045 15.4605 48.7045 15.2169V0.752652ZM59.34 7.98114C59.34 5.96313 58.3546 5.08684 56.1184 5.08684H54.6312C54.3876 5.08684 54.1876 5.28682 54.1876 5.53044V10.4319C54.1876 10.6755 54.3876 10.8754 54.6312 10.8754H56.1184C58.3546 10.8754 59.34 9.99916 59.34 7.98114Z" fill="#C8C8C8"/>
<path id="Vector_5" d="M69.3535 9.2974L63.9685 0.992632C63.7757 0.698111 63.9903 0.309052 64.3393 0.309052H69.0662C69.2189 0.309052 69.3644 0.389045 69.4444 0.519943L71.8769 4.47598C72.0514 4.75596 72.4587 4.75596 72.6332 4.47598L75.0657 0.519943C75.1457 0.389045 75.2875 0.309052 75.4439 0.309052H79.9526C80.3016 0.309052 80.5162 0.698111 80.3235 0.992632L74.9785 9.30103C74.9312 9.37376 74.9094 9.45739 74.9094 9.54101V15.2169C74.9094 15.4605 74.7094 15.6605 74.4658 15.6605H69.8698C69.6262 15.6605 69.4262 15.4605 69.4262 15.2169V9.54101C69.4262 9.45375 69.4007 9.37012 69.3535 9.30103V9.2974Z" fill="#C8C8C8"/>
<g id="Group_2">
<path id="Vector_6" d="M91.4535 5.09047H87.6465C87.4029 5.09047 87.2029 4.89049 87.2029 4.64687V0.752652C87.2029 0.509035 87.4029 0.309052 87.6465 0.309052H101.605C101.849 0.309052 102.049 0.509035 102.049 0.752652V4.64687C102.049 4.89049 101.849 5.09047 101.605 5.09047H97.7984C97.5548 5.09047 97.3548 5.29046 97.3548 5.53407V15.2169C97.3548 15.4605 97.1548 15.6605 96.9112 15.6605H92.3371C92.0935 15.6605 91.8935 15.4605 91.8935 15.2169V5.53407C91.8935 5.29046 91.6935 5.09047 91.4499 5.09047H91.4535Z" fill="#C8C8C8"/>
<path id="Vector_7" d="M102.642 7.98116C102.642 3.22155 106.325 0 111.412 0C116.499 0 120.204 3.22155 120.204 7.98116C120.204 12.7408 116.521 15.9623 111.412 15.9623C106.303 15.9623 102.642 12.7626 102.642 7.98116ZM114.524 8.00661C114.524 5.92315 113.23 4.78506 111.412 4.78506C109.594 4.78506 108.321 5.92678 108.321 8.00661C108.321 10.0864 109.616 11.1627 111.412 11.1627C113.208 11.1627 114.524 10.021 114.524 8.00661Z" fill="#C8C8C8"/>
</g>
<path id="Vector_8" d="M165.687 0.472687C166.084 0.472687 166.466 0.57086 166.829 0.770844C167.193 0.970827 167.48 1.25444 167.687 1.62532C167.895 1.9962 168 2.38526 168 2.78886C168 3.19246 167.898 3.57425 167.695 3.94149C167.491 4.30873 167.204 4.59235 166.84 4.79597C166.473 4.99958 166.091 5.10139 165.687 5.10139C165.284 5.10139 164.902 4.99958 164.535 4.79597C164.168 4.59235 163.884 4.3051 163.68 3.94149C163.477 3.57425 163.375 3.19246 163.375 2.78886C163.375 2.38526 163.48 1.9962 163.688 1.62532C163.895 1.25444 164.182 0.970827 164.546 0.770844C164.909 0.57086 165.291 0.472687 165.687 0.472687ZM165.691 0.927195C165.371 0.927195 165.069 1.00719 164.775 1.16717C164.484 1.32716 164.251 1.55623 164.084 1.85439C163.917 2.15255 163.833 2.46525 163.833 2.79249C163.833 3.11974 163.917 3.42517 164.08 3.71969C164.244 4.01421 164.473 4.24328 164.768 4.40691C165.062 4.57053 165.371 4.65416 165.691 4.65416C166.011 4.65416 166.324 4.57053 166.618 4.40691C166.913 4.24328 167.142 4.01058 167.306 3.71969C167.469 3.42881 167.553 3.1161 167.553 2.79249C167.553 2.46888 167.469 2.15255 167.302 1.85439C167.135 1.55623 166.902 1.32716 166.611 1.16717C166.317 1.00719 166.011 0.927195 165.695 0.927195H165.691ZM164.644 4.02512V1.56714H165.142C165.611 1.56714 165.873 1.56714 165.927 1.57441C166.091 1.58896 166.222 1.62168 166.313 1.67259C166.404 1.72349 166.48 1.80349 166.542 1.90893C166.604 2.01438 166.633 2.13073 166.633 2.26163C166.633 2.4398 166.575 2.58888 166.458 2.71614C166.342 2.8434 166.178 2.91976 165.971 2.94885C166.047 2.97793 166.102 3.00702 166.142 3.03975C166.182 3.07247 166.237 3.13428 166.309 3.22882C166.327 3.25427 166.389 3.35245 166.491 3.52698L166.782 4.02148H166.167L165.96 3.62152C165.822 3.35245 165.706 3.18519 165.615 3.1161C165.524 3.04702 165.411 3.01066 165.269 3.01066H165.138V4.02148H164.64L164.644 4.02512ZM165.142 2.62887H165.346C165.633 2.62887 165.811 2.61796 165.88 2.59615C165.949 2.57433 166.004 2.53433 166.044 2.47979C166.084 2.42525 166.106 2.3598 166.106 2.29072C166.106 2.22163 166.087 2.15982 166.047 2.10891C166.007 2.05437 165.953 2.01801 165.88 1.99256C165.807 1.97074 165.629 1.9562 165.346 1.9562H165.142V2.62524V2.62887Z" fill="#C8C8C8"/>
<path id="Vector_9" d="M136.69 4.78142C138.366 4.78142 140.173 4.96686 142.249 5.39228C142.526 5.44682 142.784 5.23956 142.784 4.95959V1.1599C142.784 0.95628 142.646 0.778113 142.446 0.730845C140.322 0.21816 138.406 0.00363159 136.428 0.00363159C130.439 0.00363159 127.152 2.9852 127.152 8.42112C127.152 13.1589 129.389 15.7441 133.137 15.9623C136.977 16.1841 138.351 15.3805 138.915 14.7624V15.1587C138.919 15.3951 139.111 15.5878 139.351 15.5878H142.351C142.591 15.5878 142.784 15.3951 142.784 15.1551V6.85034C142.784 6.6249 142.602 6.44673 142.38 6.44673H134.934C134.708 6.44673 134.53 6.62854 134.53 6.85034V9.27195C134.53 9.49739 134.712 9.67556 134.934 9.67556H137.704V9.84282C137.704 11.29 137.024 11.5736 135.457 11.5736C132.916 11.5736 132.836 10.0573 132.836 8.0866C132.836 5.91587 133.974 4.77415 136.693 4.77415L136.69 4.78142Z" fill="#C8C8C8"/>
<path id="Vector_10" d="M145.177 8.00298C145.177 3.24337 148.86 0.0218201 153.947 0.0218201C159.034 0.0218201 162.739 3.24337 162.739 8.00298C162.739 12.7626 159.056 15.9841 153.947 15.9841C148.838 15.9841 145.177 12.7844 145.177 8.00298ZM157.063 8.02479C157.063 5.94133 155.769 4.80324 153.951 4.80324C152.132 4.80324 150.86 5.94497 150.86 8.02479C150.86 10.1046 152.154 11.1809 153.951 11.1809C155.747 11.1809 157.063 10.0392 157.063 8.02479Z" fill="#C8C8C8"/>
</g>
</g>
</svg>
