<svg width="154" height="24" viewBox="0 0 154 24" fill="none" xmlns="http://www.w3.org/2000/svg">
<path d="M10.4101 10.4107C10.4101 10.828 10.5447 10.9231 10.735 11.0138C10.9086 11.0898 11.0934 11.1368 11.2815 11.1514H15.605C16.5398 11.0988 17.458 11.4098 18.1724 12.0218C18.5464 12.3787 18.8379 12.814 19.0293 13.2962C19.2208 13.7784 19.3065 14.2964 19.2797 14.8155C19.2987 15.3257 19.2141 15.8348 19.0305 16.3114C18.8468 16.788 18.5697 17.221 18.2147 17.5846C17.8597 17.9483 17.4346 18.2347 16.9661 18.4271C16.4975 18.6184 15.9945 18.7124 15.4882 18.7001L7.89274 18.7135C7.83042 18.7135 7.76921 18.7012 7.71134 18.6777C7.65347 18.6542 7.60228 18.6184 7.55776 18.5748C7.51436 18.5301 7.47875 18.4786 7.45538 18.4204C7.43201 18.3622 7.41977 18.3007 7.41977 18.238V16.1704C7.41977 16.1078 7.43201 16.0463 7.45538 15.9881C7.47875 15.9299 7.51325 15.8773 7.55776 15.8337C7.60117 15.7889 7.65347 15.7542 7.71023 15.7307C7.76698 15.7061 7.82819 15.6938 7.89051 15.6938L15.4737 15.6804C16.295 15.6468 16.295 15.0841 16.295 14.8099C16.3173 14.6186 16.2761 14.4262 16.1781 14.2606C16.0646 14.189 15.9322 14.1543 15.7987 14.161L15.7018 14.1756L15.6584 14.1666H11.2848C10.656 14.1532 10.0361 14.0089 9.46524 13.7415C8.83758 13.4517 8.30896 12.9807 7.94505 12.3877C7.58113 11.7947 7.39973 11.1066 7.42199 10.4107C7.39194 9.72486 7.55999 9.04461 7.90609 8.45387C8.2522 7.86313 8.76079 7.38539 9.36953 7.08107C9.92486 6.80136 10.5336 6.64472 11.1546 6.62347H18.8958C19.0204 6.62347 19.1406 6.67381 19.2286 6.7622C19.3165 6.85171 19.3666 6.97254 19.3666 7.09785V9.16657C19.3666 9.29299 19.3165 9.41383 19.2286 9.50222C19.1406 9.59172 19.0204 9.64095 18.8958 9.64095H11.2002C10.9331 9.6555 10.4101 9.69354 10.4101 10.4107Z" fill="#666666"/>
<path d="M33.0428 7.10568V9.17327C33.0428 9.23593 33.0305 9.29746 33.0071 9.35564C32.9838 9.41382 32.9493 9.46641 32.9048 9.51004C32.8614 9.55479 32.8091 9.58948 32.7523 9.61297C32.6955 9.63647 32.6343 9.64877 32.572 9.64877H29.0575C28.9329 9.64877 28.8127 9.69912 28.7248 9.78751C28.6369 9.87702 28.5868 9.99785 28.5868 10.1232V18.2291C28.5868 18.3555 28.5367 18.4763 28.4488 18.5647C28.3609 18.6542 28.2407 18.7035 28.116 18.7035H26.0683C25.9437 18.7035 25.8235 18.6531 25.7356 18.5647C25.6477 18.4752 25.5976 18.3544 25.5976 18.2291V10.1232C25.5976 9.99673 25.5475 9.8759 25.4596 9.78751C25.3717 9.698 25.2515 9.64877 25.1268 9.64877H21.6101C21.4855 9.64877 21.3653 9.59843 21.2774 9.50892C21.1895 9.41941 21.1394 9.29858 21.1394 9.17215V7.10456C21.1394 6.97813 21.1895 6.8573 21.2774 6.76891C21.3653 6.6794 21.4855 6.63017 21.6101 6.63017H32.572C32.6967 6.63017 32.8168 6.68052 32.9048 6.76891C32.9938 6.85841 33.0428 6.97925 33.0428 7.10568Z" fill="#666666"/>
<path d="M45.0674 12.6674C45.0674 13.8612 44.7169 15.0292 44.0603 16.0216C43.4037 17.0152 42.47 17.7883 41.3771 18.2459C40.2843 18.7035 39.0824 18.8221 37.9227 18.5893C36.7631 18.3566 35.697 17.7816 34.8612 16.9368C34.0254 16.0921 33.4556 15.0169 33.2253 13.8455C32.9949 12.6741 33.1129 11.4602 33.5658 10.357C34.0188 9.25383 34.7844 8.31066 35.7682 7.64719C36.752 6.98373 37.9072 6.62906 39.0902 6.62906C40.676 6.62906 42.1973 7.26567 43.318 8.39793C44.4376 9.53018 45.0674 11.0663 45.0674 12.6674ZM39.0879 15.6871C39.6789 15.6871 40.2576 15.5103 40.7495 15.1792C41.2414 14.848 41.6242 14.3758 41.8512 13.8243C42.0771 13.2727 42.1372 12.6651 42.0215 12.08C41.9057 11.4937 41.622 10.9556 41.2035 10.5338C40.7851 10.1109 40.2531 9.82332 39.6722 9.70696C39.0924 9.5906 38.4914 9.6499 37.945 9.87814C37.3986 10.1064 36.9312 10.4935 36.6029 10.9903C36.2746 11.487 36.0987 12.071 36.0987 12.6685C36.0998 13.4696 36.4148 14.236 36.9746 14.8021C37.5355 15.3671 38.2956 15.686 39.0879 15.6871Z" fill="#666666"/>
<path d="M55.0288 14.5381C54.9988 14.5056 54.9788 14.4665 54.9699 14.4228C54.9621 14.3792 54.9654 14.3344 54.9821 14.2942C54.9966 14.2528 55.0233 14.217 55.0578 14.1901C55.0923 14.1633 55.1346 14.1476 55.178 14.1442C55.7277 14.095 56.2664 13.9563 56.7716 13.7314C57.387 13.4259 57.9001 12.9449 58.2473 12.3485C58.5956 11.7522 58.7637 11.0663 58.7303 10.3749C58.7503 9.87478 58.668 9.37578 58.4888 8.90923C58.3096 8.44268 58.037 8.01864 57.6886 7.66285C56.9753 6.99939 56.0405 6.63017 55.0711 6.62794H47.3021C47.2398 6.62794 47.1786 6.64025 47.1207 6.66374C47.0628 6.68724 47.0116 6.72304 46.9671 6.76667C46.9237 6.81143 46.8881 6.86401 46.8647 6.92107C46.8414 6.97925 46.8291 7.04079 46.8291 7.10344V9.35788C46.8291 9.43396 46.8592 9.50669 46.9126 9.56039C46.966 9.6141 47.0383 9.6443 47.1129 9.6443H55.1145C55.2893 9.65885 55.4562 9.7215 55.5986 9.82443C55.7055 9.98555 55.7556 10.1802 55.7389 10.3738C55.7522 10.4812 55.7411 10.5908 55.7066 10.6926C55.671 10.7956 55.6131 10.8873 55.5363 10.9634C55.4595 11.0395 55.366 11.0965 55.2648 11.1301C55.1624 11.1637 55.0544 11.1726 54.9476 11.157H47.143C47.1007 11.157 47.0595 11.1648 47.0217 11.1816C46.9827 11.1972 46.9482 11.2219 46.9182 11.2509C46.8881 11.2812 46.8647 11.3158 46.8492 11.355C46.8336 11.3942 46.8247 11.4355 46.8247 11.4781V18.2302C46.8247 18.2929 46.8369 18.3555 46.8603 18.4126C46.8837 18.4708 46.9193 18.5233 46.9627 18.567C47.0061 18.6117 47.0584 18.6464 47.1162 18.6699C47.1741 18.6934 47.2353 18.7057 47.2977 18.7057H49.342C49.4043 18.7057 49.4655 18.6934 49.5234 18.6699C49.5813 18.6464 49.6325 18.6106 49.677 18.567C49.7204 18.5222 49.756 18.4696 49.7794 18.4126C49.8027 18.3544 49.815 18.2929 49.815 18.2302V14.6488C49.815 14.5862 49.8283 14.5246 49.8517 14.4676C49.8762 14.4105 49.9107 14.3579 49.9552 14.3143C49.9986 14.2695 50.0498 14.2349 50.1077 14.2114C50.1644 14.1879 50.2256 14.1756 50.288 14.1767H50.4449C50.5094 14.1778 50.574 14.1912 50.633 14.2181C50.6919 14.2449 50.7454 14.283 50.7899 14.3322L54.5959 18.5491C54.6404 18.5983 54.6939 18.6375 54.7551 18.6643C54.8152 18.6912 54.8808 18.7046 54.9465 18.7046H58.2484C58.294 18.7046 58.3386 18.6912 58.3775 18.6654C58.4153 18.6408 58.4465 18.605 58.4654 18.5625C58.4855 18.52 58.491 18.4719 58.4832 18.426C58.4754 18.379 58.4543 18.3365 58.4231 18.3018L55.0288 14.5381Z" fill="#666666"/>
<path d="M60.9683 6.62906H63.016C63.1407 6.62906 63.2608 6.67941 63.3488 6.76779C63.4367 6.8573 63.4868 6.97813 63.4868 7.10344V18.2302C63.4868 18.3566 63.4367 18.4775 63.3488 18.5659C63.2608 18.6554 63.1407 18.7046 63.016 18.7046H60.9683C60.8437 18.7046 60.7235 18.6542 60.6356 18.5659C60.5476 18.4763 60.4976 18.3555 60.4976 18.2302V7.10456C60.4976 6.97813 60.5476 6.85842 60.6356 6.76891C60.7235 6.68053 60.8437 6.63018 60.9683 6.62906Z" fill="#666666"/>
<path d="M68.251 10.1243V10.6826C68.251 10.809 68.3011 10.9287 68.389 11.0182C68.4769 11.1077 68.5971 11.157 68.7217 11.1581H71.652C71.7766 11.1581 71.8968 11.2084 71.9847 11.2968C72.0726 11.3852 72.1227 11.5072 72.1227 11.6325V13.7012C72.1227 13.7638 72.1105 13.8254 72.0871 13.8836C72.0637 13.9417 72.0292 13.9932 71.9847 14.038C71.9413 14.0827 71.889 14.1174 71.8322 14.1409C71.7755 14.1644 71.7143 14.1767 71.652 14.1767H68.7217C68.5971 14.1767 68.4769 14.227 68.389 14.3154C68.3011 14.4049 68.251 14.5258 68.251 14.6511V15.2094C68.251 15.3358 68.3011 15.4555 68.389 15.545C68.4769 15.6345 68.5971 15.6837 68.7217 15.6849H76.7478C76.8725 15.6849 76.9927 15.7352 77.0806 15.8236C77.1685 15.9131 77.2186 16.0339 77.2186 16.1593V18.228C77.2186 18.3544 77.1685 18.4752 77.0806 18.5636C76.9927 18.6531 76.8725 18.7024 76.7478 18.7024H65.7314C65.6068 18.7024 65.4866 18.652 65.3987 18.5636C65.3108 18.4741 65.2607 18.3533 65.2607 18.228V7.10344C65.2607 6.97701 65.3108 6.85618 65.3987 6.76779C65.4866 6.67829 65.6068 6.62906 65.7314 6.62906H76.7478C76.8725 6.62906 76.9927 6.67941 77.0806 6.76779C77.1685 6.8573 77.2186 6.97813 77.2186 7.10344V9.17104C77.2186 9.29747 77.1696 9.4183 77.0806 9.50781C76.9927 9.59731 76.8725 9.64766 76.7478 9.64766H68.7217C68.5971 9.64766 68.4769 9.69801 68.389 9.7864C68.3 9.87702 68.251 9.99785 68.251 10.1243Z" fill="#666666"/>
<path d="M81.9751 10.4107C81.9751 10.828 82.1097 10.9231 82.3 11.0138C82.4736 11.0898 82.6584 11.1368 82.8464 11.1514H87.1722C88.107 11.0988 89.0252 11.4098 89.7396 12.0218C90.1136 12.3787 90.4051 12.8139 90.5965 13.2962C90.788 13.7784 90.8737 14.2975 90.8469 14.8155C90.8659 15.3257 90.7813 15.8348 90.5977 16.3114C90.414 16.788 90.1369 17.221 89.7819 17.5846C89.4269 17.9483 89.0018 18.2358 88.5333 18.4271C88.0647 18.6184 87.5617 18.7124 87.0554 18.7001L79.4599 18.7135C79.3353 18.7135 79.2151 18.6632 79.1272 18.5748C79.0393 18.4853 78.9892 18.3645 78.9892 18.2392V16.1716C78.9892 16.1089 79.0014 16.0474 79.0248 15.9892C79.0482 15.931 79.0827 15.8784 79.1272 15.8348C79.1706 15.79 79.2229 15.7554 79.2796 15.7307C79.3364 15.7072 79.3976 15.6938 79.4599 15.6938L87.0431 15.6804C87.8644 15.6468 87.8644 15.0841 87.8644 14.8099C87.8867 14.6186 87.8455 14.4262 87.7476 14.2606C87.6341 14.189 87.5016 14.1543 87.3681 14.161L87.2713 14.1756L87.2279 14.1666H82.8475C82.2188 14.1532 81.5989 14.0077 81.028 13.7415C80.4003 13.4506 79.8717 12.9795 79.5078 12.3854C79.145 11.7925 78.9636 11.1033 78.9858 10.4062C78.9558 9.72038 79.1238 9.04014 79.47 8.44939C79.8161 7.85865 80.3246 7.38091 80.9334 7.07659C81.4887 6.79688 82.0975 6.64025 82.7185 6.61899H90.4597C90.5843 6.61899 90.7045 6.66934 90.7924 6.75772C90.8803 6.84723 90.9304 6.96806 90.9304 7.09337V9.16544C90.9304 9.29187 90.8803 9.41271 90.7924 9.50109C90.7045 9.5906 90.5843 9.63983 90.4597 9.63983H82.7641C82.4981 9.65325 81.9739 9.69018 81.9751 10.4073" fill="#666666"/>
<path d="M107.755 2.47372H102.145C101.837 2.47372 101.541 2.59791 101.324 2.81832C101.106 3.03873 100.983 3.33634 100.983 3.64738V7.00163C100.983 7.31266 101.106 7.61139 101.324 7.83068C101.541 8.05109 101.837 8.17416 102.145 8.17528H102.907C103.004 8.17528 103.096 8.21444 103.164 8.28269C103.232 8.35206 103.271 8.44492 103.271 8.54338V21.6885C103.271 21.9995 103.394 22.2983 103.612 22.5187C103.83 22.7391 104.125 22.8622 104.434 22.8633H107.755C108.062 22.8633 108.359 22.7391 108.577 22.5187C108.794 22.2983 108.918 22.0007 108.918 21.6885V3.64738C108.918 3.33634 108.794 3.03761 108.577 2.8172C108.359 2.59791 108.063 2.47372 107.755 2.47372Z" fill="#666666"/>
<path d="M121.097 2.47372C119.101 2.47372 117.15 3.07118 115.488 4.19113C113.828 5.31108 112.535 6.90317 111.77 8.76602C111.007 10.6289 110.806 12.6786 111.196 14.6555C111.586 16.6325 112.546 18.4495 113.958 19.8749C115.369 21.3003 117.168 22.2714 119.126 22.6652C121.084 23.0591 123.113 22.8577 124.958 22.0868C126.802 21.3159 128.379 20.0103 129.49 18.3331C130.599 16.6571 131.191 14.6869 131.192 12.6707C131.186 9.96877 130.122 7.37867 128.229 5.46771C126.338 3.55787 123.773 2.48044 121.097 2.47372ZM125.548 12.6663C125.545 13.8399 125.088 14.9666 124.276 15.8057C123.463 16.6448 122.358 17.1304 121.196 17.1595H121.098C120.219 17.1595 119.359 16.8954 118.627 16.402C117.896 15.9086 117.325 15.2071 116.989 14.3859C116.652 13.5647 116.563 12.6618 116.736 11.7902C116.908 10.9187 117.331 10.1187 117.953 9.48991C118.576 8.86112 119.369 8.43373 120.231 8.26031C121.094 8.08689 121.989 8.17528 122.801 8.51541C123.615 8.85553 124.309 9.43061 124.798 10.1702C125.286 10.9086 125.548 11.7779 125.548 12.6663Z" fill="#666666"/>
<path d="M143.003 12.5007C142.953 12.5734 142.925 12.6607 142.925 12.7502C142.925 12.8397 142.953 12.927 143.003 12.9997L146.069 17.4895L146.687 18.3958C146.74 18.4708 146.773 18.5591 146.782 18.6509C146.79 18.7426 146.775 18.8355 146.736 18.9205C146.698 19.0044 146.638 19.0772 146.562 19.1297C146.487 19.1823 146.399 19.2148 146.307 19.2215L141.259 19.3625C141.178 19.3636 141.099 19.3457 141.027 19.3076C140.954 19.2707 140.893 19.2159 140.848 19.1488L139.938 17.8241C139.893 17.7838 139.837 17.7525 139.779 17.7346C139.72 17.7167 139.659 17.7111 139.598 17.7189C139.537 17.7267 139.478 17.7469 139.425 17.7793C139.373 17.8118 139.327 17.8543 139.292 17.9057L135.76 23.0524C135.719 23.1105 135.667 23.1586 135.605 23.1911C135.544 23.2247 135.475 23.2414 135.405 23.2414H130.097C130.018 23.2414 129.941 23.2202 129.872 23.1788C129.804 23.1374 129.75 23.0781 129.713 23.0076C129.677 22.936 129.659 22.8566 129.664 22.776C129.669 22.6955 129.695 22.6183 129.741 22.5522L136.289 12.9997C136.33 12.9404 136.356 12.8721 136.364 12.8005C136.372 12.7289 136.363 12.6562 136.337 12.5891L132.589 7.12806C132.534 7.05309 132.502 6.96583 132.493 6.87296C132.484 6.78122 132.5 6.68836 132.538 6.60444C132.576 6.52053 132.636 6.44781 132.71 6.39522C132.785 6.34152 132.872 6.31019 132.963 6.30236L138.055 6.16139C138.137 6.16027 138.215 6.17817 138.286 6.21621C138.357 6.25313 138.417 6.30795 138.463 6.37508L139.324 7.63936C139.365 7.68411 139.413 7.71992 139.469 7.74453C139.524 7.76915 139.585 7.78145 139.643 7.78033C139.714 7.78033 139.783 7.76243 139.845 7.72999C139.907 7.69642 139.96 7.64943 140 7.59125L143.644 2.2824C143.684 2.22199 143.738 2.17388 143.801 2.14031C143.865 2.10675 143.935 2.09108 144.006 2.0922H149.31C149.389 2.09108 149.467 2.11234 149.535 2.15262C149.603 2.19402 149.659 2.2522 149.696 2.3238C149.733 2.39429 149.751 2.47484 149.745 2.55428C149.741 2.63372 149.713 2.71092 149.668 2.77693L143.003 12.5007Z" fill="#666666"/>
<path d="M99.1813 11.9379L95.0625 9.53578C94.9357 9.46194 94.7921 9.42278 94.6452 9.42278C94.4983 9.42278 94.3548 9.46194 94.2279 9.53578C94.101 9.60962 93.9964 9.71591 93.923 9.84458C93.8495 9.97212 93.8117 10.1176 93.8117 10.2653V15.0684C93.8117 15.2161 93.8495 15.3615 93.923 15.4891C93.9964 15.6166 94.101 15.724 94.2279 15.7979C94.3548 15.8717 94.4983 15.9109 94.6452 15.9109C94.7921 15.9109 94.9357 15.8717 95.0625 15.7979L99.1813 13.3957C99.3082 13.3219 99.4139 13.2156 99.4874 13.0881C99.5597 12.9605 99.5987 12.8151 99.5987 12.6674C99.5987 12.5197 99.5597 12.3743 99.4874 12.2467C99.4139 12.118 99.3082 12.0118 99.1813 11.9379Z" fill="#666666"/>
</svg>
