<svg width="67" height="37" viewBox="0 0 67 37" fill="none" xmlns="http://www.w3.org/2000/svg">
<g id="logo-vtsd iniciais" clip-path="url(#clip0_7514_7113)">
<path id="Vector" d="M28.3963 20.6161V26.5943C28.3963 27.5099 28.9219 28.6575 30.7698 28.6575C30.8102 28.6575 30.8547 28.6575 30.8992 28.6575C31.1135 29.9394 31.5421 31.0789 31.5623 31.1318C31.5623 31.1318 31.5623 31.144 31.5623 31.148C31.8171 31.8887 32.1648 32.5886 32.5894 33.2357C32.553 33.3781 32.4721 33.5084 32.3508 33.5979C31.5017 34.2531 29.9328 34.4688 28.6146 34.4688C24.6884 34.4688 21.858 32.5602 21.858 27.5913V20.6243C21.858 20.2458 21.5507 19.9365 21.1746 19.9365H20.1921C20.1274 19.9365 20.0708 19.9772 20.0465 20.0342L14.4544 34.0863C14.3614 34.3182 14.139 34.4647 13.8883 34.4647H8.63174C8.38512 34.4647 8.16273 34.3182 8.06569 34.0863L0.391165 14.8089C0.225383 14.4061 0.520538 13.9584 0.95319 13.9584H6.25822C6.50891 13.9584 6.73538 14.1171 6.8284 14.3532L10.7101 24.9095C10.9123 25.4385 11.6522 25.4385 11.8504 24.9095L15.6957 14.3532C15.7887 14.1131 16.0111 13.9584 16.2699 13.9584H21.1827C21.5588 13.9584 21.862 13.6532 21.862 13.2747V9.97438C21.862 9.5959 22.1734 9.28258 22.5494 9.28258H27.7129C28.089 9.28258 28.3963 9.59184 28.3963 9.97032V13.3114C28.3963 13.6654 28.6834 13.9584 29.0392 13.9584H32.8401C32.4964 14.8781 32.3144 15.8833 32.3144 16.9495C32.3144 18.0768 32.5085 19.0657 32.8401 19.9325H29.0756C28.6996 19.9325 28.3963 20.2377 28.3963 20.6161Z" fill="#666666"/>
<path id="Vector_2" d="M65.7297 9.27852H60.4286C60.0893 9.27852 59.814 9.55931 59.814 9.89704V16.1966H59.701C59.5515 15.8548 57.7035 13.9585 54.2663 13.9585C53.2031 13.9585 52.1033 14.1578 51.0519 14.5607L50.7406 14.691C50.6192 14.7438 50.4979 14.7927 50.3847 14.8496C50.2513 14.9107 50.1179 14.9799 49.9925 15.0491C49.8672 15.1101 49.7499 15.1793 49.6326 15.2525C49.5194 15.3176 49.4102 15.3827 49.3011 15.4601C49.2768 15.4764 49.2485 15.4886 49.2243 15.513C49.1312 15.57 49.0423 15.6351 48.9493 15.7002C48.6096 15.9444 48.2861 16.2089 47.9829 16.5019C47.6473 16.8234 47.3319 17.1774 47.0488 17.5518C46.9518 17.678 46.8548 17.8082 46.7698 17.9425C46.3776 18.5203 46.038 19.1552 45.7671 19.8552C48.4439 20.9906 50.2837 22.2318 51.4239 23.7334C51.6463 21.251 53.5388 19.7819 55.6658 19.7819C58.0026 19.7819 59.9635 21.4138 59.9635 24.2258C59.9635 27.0379 58.0026 28.6656 55.6658 28.6656C54.6221 28.6656 53.6316 28.3116 52.8716 27.6564C52.8958 27.9331 52.9077 28.218 52.9077 28.507C52.9077 30.5539 52.3173 32.4015 51.1813 33.9234C52.192 34.2897 53.2433 34.4728 54.2663 34.4728C57.7035 34.4728 59.5515 32.5764 59.701 32.2346H59.814V33.4758C59.814 33.8176 60.0893 34.0944 60.4286 34.0944H65.7297C66.0695 34.0944 66.3443 33.8136 66.3443 33.4758V9.90927C66.3443 9.56743 66.0695 9.2907 65.7297 9.2907V9.27852Z" fill="#666666"/>
<path id="Vector_3" d="M51.8727 28.4947C51.8727 30.9812 50.9226 32.902 49.475 34.2816C47.5503 36.121 44.7401 37 42.1361 37C37.6155 37 33.7742 34.424 32.5328 30.7737C32.5328 30.7655 32.5328 30.7614 32.5247 30.7533C32.4681 30.5946 32.0476 29.4307 31.8737 28.2302C31.8293 27.9372 32.0638 27.6768 32.3549 27.6768H37.3769C37.5427 27.6768 37.7004 27.7663 37.7934 27.9087L37.9511 28.1651L38.0036 28.2424C38.7678 29.6382 39.9526 31.0015 42.0229 31.0015C43.341 31.0015 44.55 30.4522 44.8776 29.1581C44.9341 28.9342 44.9665 28.6901 44.9665 28.4174C44.9665 27.6808 44.7684 27.1558 44.1578 26.6594C43.6968 26.2931 43.0054 25.9391 41.9865 25.5321L40.3246 24.8851C36.8553 23.4811 33.3456 21.5399 33.3456 16.9454C33.3456 12.351 37.3446 9.27441 42.0593 9.27441C45.7954 9.27441 48.4075 11.0772 50.0006 13.2259C50.1786 13.4701 50.0977 13.8241 49.8227 13.9543C48.8887 14.4102 48.0233 15.0084 47.2713 15.7286C46.9437 16.0461 46.6001 16.4164 46.2644 16.8478L46.1108 17.0472C45.9814 17.2059 45.7388 17.1978 45.6216 17.0268C45.5771 16.9658 45.5286 16.9047 45.4921 16.8519C45.4719 16.8315 45.4598 16.8071 45.4396 16.7908C45.4073 16.746 45.3749 16.7094 45.3466 16.6809C45.3021 16.6239 45.2738 16.5955 45.2738 16.5955C44.36 15.5618 43.3734 15.1548 42.3261 15.1548C40.9311 15.1548 39.8717 15.7653 39.8717 17.0512C39.8717 18.0402 40.4378 18.8378 43.155 19.904L44.4651 20.4249L44.9665 20.6243C49.9117 22.6346 51.8727 24.877 51.8727 28.4866V28.4947Z" fill="#666666"/>
<path id="Vector_4" d="M19.2297 1.03772H19.7432C19.7432 1.03772 19.7756 1.04993 19.7837 1.0662L20.9118 3.61372C20.928 3.65035 20.9765 3.65035 20.9927 3.61372L22.1249 1.0662C22.1249 1.0662 22.1491 1.03772 22.1653 1.03772H22.6788C22.7031 1.03772 22.7233 1.05806 22.7233 1.08248V4.34216C22.7233 4.36658 22.7031 4.38693 22.6788 4.38693H22.238C22.2138 4.38693 22.1936 4.36658 22.1936 4.34216V2.07545H22.1693L21.1585 4.36251C21.1585 4.36251 21.1342 4.39099 21.118 4.39099H20.7824C20.7824 4.39099 20.7501 4.37879 20.742 4.36251L19.7351 2.07952H19.7109V4.34623C19.7109 4.37065 19.6907 4.39099 19.6664 4.39099H19.2257C19.2014 4.39099 19.1812 4.37065 19.1812 4.34623V1.08655C19.1812 1.06213 19.2014 1.04179 19.2257 1.04179L19.2297 1.03772Z" fill="#666666"/>
<path id="Vector_5" d="M25.1534 1.03773H26.9002C26.9245 1.03773 26.9447 1.05807 26.9447 1.08249V1.48944C26.9447 1.51386 26.9245 1.53421 26.9002 1.53421H25.6831C25.6589 1.53421 25.6386 1.55456 25.6386 1.57897V2.41729C25.6386 2.44171 25.6589 2.46205 25.6831 2.46205H26.6981C26.7223 2.46205 26.7425 2.4824 26.7425 2.50682V2.89749C26.7425 2.92191 26.7223 2.94226 26.6981 2.94226H25.6831C25.6589 2.94226 25.6386 2.96261 25.6386 2.98702V3.84569C25.6386 3.87011 25.6589 3.89045 25.6831 3.89045H26.9447C26.969 3.89045 26.9892 3.9108 26.9892 3.93522V4.34217C26.9892 4.36659 26.969 4.38694 26.9447 4.38694H25.1534C25.1292 4.38694 25.1089 4.36659 25.1089 4.34217V1.08249C25.1089 1.05807 25.1292 1.03773 25.1534 1.03773ZM26.3462 0H26.6697C26.7061 0 26.7263 0.0406952 26.7061 0.0691818L26.2977 0.716233C26.2977 0.716233 26.2735 0.736583 26.2613 0.736583H25.95C25.9136 0.736583 25.8934 0.699958 25.9136 0.667398L26.3098 0.0203472C26.3098 0.0203472 26.3341 0 26.3462 0Z" fill="#666666"/>
<path id="Vector_6" d="M29.9814 1.53014H29.2333C29.2091 1.53014 29.1888 1.50979 29.1888 1.48537V1.07842C29.1888 1.054 29.2091 1.03365 29.2333 1.03365H31.3521C31.3763 1.03365 31.3966 1.054 31.3966 1.07842V1.48537C31.3966 1.50979 31.3763 1.53014 31.3521 1.53014H30.604C30.5798 1.53014 30.5596 1.55048 30.5596 1.5749V4.3381C30.5596 4.36252 30.5394 4.38286 30.5151 4.38286H30.0744C30.0501 4.38286 30.0299 4.36252 30.0299 4.3381V1.5749C30.0299 1.55048 30.0097 1.53014 29.9854 1.53014H29.9814Z" fill="#666666"/>
<path id="Vector_7" d="M33.3819 2.71028C33.3819 1.6807 34.1664 0.988884 35.0842 0.988884C36.0021 0.988884 36.7865 1.6807 36.7865 2.71028C36.7865 3.73987 35.998 4.43169 35.0842 4.43169C34.1704 4.43169 33.3819 3.73987 33.3819 2.71028ZM35.0842 3.923C35.7029 3.923 36.2406 3.44687 36.2406 2.71028C36.2406 1.97371 35.7029 1.49757 35.0842 1.49757C34.4656 1.49757 33.9278 1.97371 33.9278 2.71028C33.9278 3.44687 34.4656 3.923 35.0842 3.923Z" fill="#666666"/>
<path id="Vector_8" d="M39.1317 1.08248C39.1317 1.05806 39.1519 1.03772 39.1762 1.03772H40.2396C41.1858 1.03772 41.8611 1.7214 41.8611 2.71436C41.8611 3.70732 41.1858 4.39099 40.2396 4.39099H39.1762C39.1519 4.39099 39.1317 4.37065 39.1317 4.34623V1.08655V1.08248ZM40.2194 3.88231C40.927 3.88231 41.3112 3.41025 41.3112 2.71436C41.3112 2.01847 40.927 1.54234 40.2194 1.54234H39.7059C39.6816 1.54234 39.6614 1.56269 39.6614 1.5871V3.83755C39.6614 3.86196 39.6816 3.88231 39.7059 3.88231H40.2194Z" fill="#666666"/>
<path id="Vector_9" d="M44.1052 2.71028C44.1052 1.6807 44.8896 0.988884 45.8075 0.988884C46.7254 0.988884 47.5098 1.6807 47.5098 2.71028C47.5098 3.73987 46.7213 4.43169 45.8075 4.43169C44.8937 4.43169 44.1052 3.73987 44.1052 2.71028ZM45.8075 3.923C46.4262 3.923 46.964 3.44687 46.964 2.71028C46.964 1.97371 46.4262 1.49757 45.8075 1.49757C45.1889 1.49757 44.6511 1.97371 44.6511 2.71028C44.6511 3.44687 45.1889 3.923 45.8075 3.923Z" fill="#666666"/>
</g>
<defs>
<clipPath id="clip0_7514_7113">
<rect width="66" height="37" fill="white" transform="translate(0.34436)"/>
</clipPath>
</defs>
</svg>
